<svg viewBox="0 0 820 700" xmlns="http://www.w3.org/2000/svg" role="img">
<title>Hubitat Dashboard preview</title>
<rect width="820" height="700" fill="#000"/>
<rect x="20" y="20" width="150" height="30" rx="15.0" fill="rgba(216,58,58,0.15)" stroke="rgba(216,58,58,0.3)" stroke-width="1"/>
<circle cx="34" cy="35.0" r="4" fill="#d83a3a"/>
<text x="46" y="39.0" font-size="12" font-weight="500" fill="#d83a3a" font-family="system-ui,sans-serif">HSM: armedHome</text>
<rect x="180" y="20" width="130" height="30" rx="15.0" fill="#1e1e1e" stroke="#2a2a2a" stroke-width="1"/>
<text x="194" y="39.0" font-size="12" font-weight="500" fill="#9a9a9a" font-family="system-ui,sans-serif">Mode: Home</text>
<rect x="320" y="20" width="130" height="30" rx="15.0" fill="rgba(45,191,100,0.12)" stroke="rgba(45,191,100,0.25)" stroke-width="1"/>
<circle cx="334" cy="35.0" r="4" fill="#2dbf64"/>
<text x="346" y="39.0" font-size="12" font-weight="500" fill="#2dbf64" font-family="system-ui,sans-serif">Brian: Home</text>
<text x="20" y="90" font-size="26" font-weight="600" fill="#d4d4d4" font-family="system-ui,sans-serif">Home</text>
<rect x="660" y="65" width="60" height="28" rx="4" fill="#2a2a2a" stroke="#2a2a2a"/>
<text x="690" y="84" font-size="12" font-weight="600" fill="#9a9a9a" text-anchor="middle" font-family="system-ui,sans-serif">EDIT</text>
<circle cx="750" cy="79" r="14" fill="#1a1a1a" stroke="#2a2a2a"/>
<text x="750" y="84" font-size="14" fill="#9a9a9a" text-anchor="middle" font-family="system-ui,sans-serif">&#9881;</text>
<rect x="20" y="110" width="70" height="30" rx="15" fill="#2d7fbf"/>
<text x="55" y="130" font-size="12" font-weight="600" fill="#ffffff" text-anchor="middle" font-family="system-ui,sans-serif">Main</text>
<rect x="20" y="155" width="258" height="110" rx="6" fill="#2dbf64" stroke="#2dbf64" stroke-width="1"/>
<text x="30" y="173" font-size="10" font-weight="500" fill="#0a0a0a" font-family="system-ui,sans-serif">87%</text>
<text x="149.0" y="201.2" font-size="13" font-weight="500" fill="#0a0a0a" text-anchor="middle" font-family="system-ui,sans-serif">Front Door</text>
<g transform="translate(111.5,214.8) scale(0.75)"><path d="M12,17A2,2 0 0,0 14,15C14,13.89 13.1,13 12,13A2,2 0 0,0 10,15A2,2 0 0,0 12,17M18,8A2,2 0 0,1 20,10V20A2,2 0 0,1 18,22H6A2,2 0 0,1 4,20V10C4,8.89 4.9,8 6,8H7V6A5,5 0 0,1 12,1A5,5 0 0,1 17,6V8H18M12,3A3,3 0 0,0 9,6V8H15V6A3,3 0 0,0 12,3Z" fill="#0a0a0a"/></g>
<text x="135.5" y="229.8" font-size="15" font-weight="600" fill="#0a0a0a" font-family="system-ui,sans-serif">locked</text>
<rect x="290" y="155" width="258" height="110" rx="6" fill="#1a1a1a" stroke="#2a2a2a" stroke-width="1"/>
<text x="419.0" y="201.2" font-size="13" font-weight="500" fill="#9a9a9a" text-anchor="middle" font-family="system-ui,sans-serif">Kitchen</text>
<g transform="translate(394.25,214.8) scale(0.75)"><path d="M17,7H7A5,5 0 0,0 2,12A5,5 0 0,0 7,17H17A5,5 0 0,0 22,12A5,5 0 0,0 17,7M7,15A3,3 0 0,1 4,12A3,3 0 0,1 7,9A3,3 0 0,1 10,12A3,3 0 0,1 7,15Z" fill="#d4d4d4"/></g>
<text x="418.25" y="229.8" font-size="15" font-weight="600" fill="#d4d4d4" font-family="system-ui,sans-serif">Off</text>
<rect x="560" y="155" width="258" height="110" rx="6" fill="#2dbf64" stroke="#2dbf64" stroke-width="1"/>
<text x="689.0" y="201.2" font-size="13" font-weight="500" fill="#0a0a0a" text-anchor="middle" font-family="system-ui,sans-serif">Living Room</text>
<g transform="translate(664.25,214.8) scale(0.75)"><path d="M12,6A6,6 0 0,1 18,12C18,14.22 16.79,16.16 15,17.2V19A1,1 0 0,1 14,20H10A1,1 0 0,1 9,19V17.2C7.21,16.16 6,14.22 6,12A6,6 0 0,1 12,6M14,21V22A1,1 0 0,1 13,23H11A1,1 0 0,1 10,22V21H14M20,11H23V13H20V11M1,11H4V13H1V11M13,1V4H11V1H13M4.92,3.5L7.05,5.64L5.63,7.05L3.5,4.93L4.92,3.5M16.95,5.63L19.07,3.5L20.5,4.93L18.37,7.05L16.95,5.63Z" fill="#0a0a0a"/></g>
<text x="688.25" y="229.8" font-size="15" font-weight="600" fill="#0a0a0a" font-family="system-ui,sans-serif">65%</text>
<rect x="20" y="277" width="258" height="110" rx="6" fill="#2dbf64" stroke="#2dbf64" stroke-width="1"/>
<text x="149.0" y="323.2" font-size="13" font-weight="500" fill="#0a0a0a" text-anchor="middle" font-family="system-ui,sans-serif">Garage</text>
<g transform="translate(111.5,336.8) scale(0.75)"><path d="M19,20H17V11H7V20H5V9L12,5L19,9V20M8,12H16V14H8V12M8,15H16V17H8V15M16,18V20H8V18H16Z" fill="#0a0a0a"/></g>
<text x="135.5" y="351.8" font-size="15" font-weight="600" fill="#0a0a0a" font-family="system-ui,sans-serif">closed</text>
<rect x="290" y="277" width="258" height="110" rx="6" fill="#1a1a1a" stroke="#2a2a2a" stroke-width="1"/>
<text x="419.0" y="323.2" font-size="13" font-weight="500" fill="#9a9a9a" text-anchor="middle" font-family="system-ui,sans-serif">Front Sensor</text>
<text x="419.0" y="351.8" font-size="15" font-weight="600" fill="#d4d4d4" text-anchor="middle" font-family="system-ui,sans-serif">closed</text>
<rect x="560" y="277" width="258" height="110" rx="6" fill="#2dbf64" stroke="#2dbf64" stroke-width="1"/>
<text x="689.0" y="323.2" font-size="13" font-weight="500" fill="#0a0a0a" text-anchor="middle" font-family="system-ui,sans-serif">Brian</text>
<g transform="translate(660.0,336.8) scale(0.75)"><path d="M12,3L2,12H5V20H19V12H22L12,3M12,8.75A2.25,2.25 0 0,1 14.25,11A2.25,2.25 0 0,1 12,13.25A2.25,2.25 0 0,1 9.75,11A2.25,2.25 0 0,1 12,8.75M12,15C13.5,15 16.5,15.75 16.5,17.25V18H7.5V17.25C7.5,15.75 10.5,15 12,15Z" fill="#0a0a0a"/></g>
<text x="684.0" y="351.8" font-size="15" font-weight="600" fill="#0a0a0a" font-family="system-ui,sans-serif">Home</text>
<rect x="20" y="399" width="258" height="110" rx="6" fill="#1a1a1a" stroke="#2a2a2a" stroke-width="1"/>
<text x="149.0" y="445.2" font-size="13" font-weight="500" fill="#9a9a9a" text-anchor="middle" font-family="system-ui,sans-serif">Sprinklers</text>
<g transform="translate(111.5,458.8) scale(0.75)"><path d="M22 2V22H20V13H14.82A3 3 0 0 1 9.18 13H4V22H2V2H4V11H9.18A3 3 0 0 1 14.82 11H20V2Z" fill="#d4d4d4"/></g>
<text x="135.5" y="473.8" font-size="15" font-weight="600" fill="#d4d4d4" font-family="system-ui,sans-serif">closed</text>
<rect x="290" y="399" width="258" height="110" rx="6" fill="#2dbf64" stroke="#2dbf64" stroke-width="1"/>
<text x="419.0" y="445.2" font-size="13" font-weight="500" fill="#0a0a0a" text-anchor="middle" font-family="system-ui,sans-serif">Bedroom Shade</text>
<g transform="translate(390.0,458.8) scale(0.75)"><path d="M3 4H21V8H19V20H17V8H7V20H5V8H3V4M8 9H16V11H8V9Z" fill="#0a0a0a"/></g>
<text x="414.0" y="473.8" font-size="15" font-weight="600" fill="#0a0a0a" font-family="system-ui,sans-serif">open</text>
<rect x="560" y="399" width="258" height="110" rx="6" fill="#d83a3a" stroke="#d83a3a" stroke-width="1"/>
<text x="570" y="417" font-size="10" font-weight="500" fill="#ffffff" font-family="system-ui,sans-serif">45%</text>
<text x="689.0" y="445.2" font-size="13" font-weight="500" fill="#ffffff" text-anchor="middle" font-family="system-ui,sans-serif">Guest Room</text>
<g transform="translate(643.0,458.8) scale(0.75)"><path d="M18,8A2,2 0 0,1 20,10V20A2,2 0 0,1 18,22H6C4.89,22 4,21.1 4,20V10A2,2 0 0,1 6,8H15V6A3,3 0 0,0 12,3A3,3 0 0,0 9,6H7A5,5 0 0,1 12,1A5,5 0 0,1 17,6V8H18M12,17A2,2 0 0,0 14,15A2,2 0 0,0 12,13A2,2 0 0,0 10,15A2,2 0 0,0 12,17Z" fill="#ffffff"/></g>
<text x="667.0" y="473.8" font-size="15" font-weight="600" fill="#ffffff" font-family="system-ui,sans-serif">unlocked</text>
<rect x="20" y="537" width="258" height="110" rx="6" fill="#1a1a1a" stroke="#2a2a2a" stroke-width="1"/>
<text x="149.0" y="583.2" font-size="13" font-weight="500" fill="#9a9a9a" text-anchor="middle" font-family="system-ui,sans-serif">Mode</text>
<text x="149.0" y="611.8" font-size="15" font-weight="600" fill="#d4d4d4" text-anchor="middle" font-family="system-ui,sans-serif">Home</text>
<rect x="290" y="537" width="258" height="110" rx="6" fill="#2dbf64" stroke="#2dbf64" stroke-width="1"/>
<text x="419.0" y="583.2" font-size="13" font-weight="500" fill="#0a0a0a" text-anchor="middle" font-family="system-ui,sans-serif">HSM</text>
<text x="419.0" y="611.8" font-size="15" font-weight="600" fill="#0a0a0a" text-anchor="middle" font-family="system-ui,sans-serif">armedHome</text>
<rect x="560" y="537" width="258" height="110" rx="6" fill="#1a1a1a" stroke="#2a2a2a" stroke-width="1"/>
<text x="689.0" y="583.2" font-size="13" font-weight="500" fill="#9a9a9a" text-anchor="middle" font-family="system-ui,sans-serif">Outdoor Temp</text>
<text x="689.0" y="611.8" font-size="15" font-weight="600" fill="#d4d4d4" text-anchor="middle" font-family="system-ui,sans-serif">72°F</text>
</svg>