<svg viewBox="0 0 720 460" xmlns="http://www.w3.org/2000/svg" role="img">
<title>Icon picker in the tile editor</title>
<rect width="720" height="460" fill="#000"/>
<rect x="40" y="30" width="640" height="400" rx="10" fill="#111" stroke="#333" stroke-width="1"/>
<text x="68" y="72" font-size="20" font-weight="500" fill="#d4d4d4" font-family="system-ui,sans-serif">Choose an icon</text>
<rect x="68" y="94" width="584" height="38" rx="5" fill="#1a1a1a" stroke="#2d7fbf" stroke-width="1.5"/>
<text x="82" y="119" font-size="14" fill="#d4d4d4" font-family="system-ui,sans-serif">fan</text>
<rect x="68" y="152" width="104" height="92" rx="6" fill="#1a1a1a" stroke="#2a2a2a" stroke-width="1"/>
<g transform="translate(107.0,170) scale(1.0833333333333333)"><path d="M12,11A1,1 0 0,0 11,12A1,1 0 0,0 12,13A1,1 0 0,0 13,12A1,1 0 0,0 12,11M12.5,2C17,2 17.11,5.57 14.75,6.75C13.76,7.24 13.32,8.29 13.13,9.22C13.61,9.42 14.03,9.73 14.35,10.13C18.05,8.13 22.03,8.92 22.03,12.5C22.03,17 18.46,17.1 17.28,14.73C16.78,13.74 15.72,13.3 14.79,13.11C14.59,13.59 14.28,14 13.88,14.34C15.87,18.03 15.08,22 11.5,22C7,22 6.91,18.42 9.27,17.24C10.25,16.75 10.69,15.71 10.89,14.79C10.4,14.59 9.97,14.27 9.65,13.87C5.96,15.85 2,15.07 2,11.5C2,7 5.56,6.89 6.74,9.26C7.24,10.25 8.29,10.68 9.22,10.87C9.41,10.39 9.73,9.97 10.14,9.65C8.15,5.96 8.94,2 12.5,2Z" fill="#d4d4d4"/></g>
<text x="120.0" y="230" font-size="11" fill="#9a9a9a" text-anchor="middle" font-family="system-ui,sans-serif">fan</text>
<rect x="186" y="152" width="104" height="92" rx="6" fill="#1a1a1a" stroke="#2a2a2a" stroke-width="1"/>
<g transform="translate(225.0,170) scale(1.0833333333333333)"><path d="M8 3V5H11V10.27C10.38 10.63 10 11.29 10 12V13H14V12C14 11.29 13.62 10.63 13 10.27V5H16V3H8M6 12C3.79 12 2 12.67 2 13.5S3.79 15 6 15 10 14.33 10 13.5 8.21 12 6 12M18 12C15.79 12 14 12.67 14 13.5S15.79 15 18 15 22 14.33 22 13.5 20.21 12 18 12M10 14V15C10 15.72 10.38 16.38 11 16.73C11.62 17.09 12.38 17.09 13 16.73C13.62 16.38 14 15.71 14 15V14H10Z" fill="#d4d4d4"/></g>
<text x="238.0" y="230" font-size="11" fill="#9a9a9a" text-anchor="middle" font-family="system-ui,sans-serif">ceiling-fan</text>
<rect x="304" y="152" width="104" height="92" rx="6" fill="rgba(45,127,191,0.15)" stroke="#2d7fbf" stroke-width="2"/>
<g transform="translate(343.0,170) scale(1.0833333333333333)"><path d="M13 19C13 17.59 13.5 16.3 14.3 15.28C14.17 14.97 14.03 14.65 13.86 14.34C14.26 14 14.57 13.59 14.77 13.11C15.26 13.21 15.78 13.39 16.25 13.67C17.07 13.25 18 13 19 13C20.05 13 21.03 13.27 21.89 13.74C21.95 13.37 22 12.96 22 12.5C22 8.92 18.03 8.13 14.33 10.13C14 9.73 13.59 9.42 13.11 9.22C13.3 8.29 13.74 7.24 14.73 6.75C17.09 5.57 17 2 12.5 2C8.93 2 8.14 5.96 10.13 9.65C9.72 9.97 9.4 10.39 9.21 10.87C8.28 10.68 7.23 10.25 6.73 9.26C5.56 6.89 2 7 2 11.5C2 15.07 5.95 15.85 9.64 13.87C9.96 14.27 10.39 14.59 10.88 14.79C10.68 15.71 10.24 16.75 9.26 17.24C6.9 18.42 7 22 11.5 22C12.31 22 13 21.78 13.5 21.41C13.19 20.67 13 19.86 13 19M12 13C11.43 13 11 12.55 11 12S11.43 11 12 11C12.54 11 13 11.45 13 12S12.54 13 12 13M17 15V17H18V23H20V15H17Z" fill="#d4d4d4"/></g>
<text x="356.0" y="230" font-size="11" fill="#9a9a9a" text-anchor="middle" font-family="system-ui,sans-serif">fan-speed-1</text>
<rect x="422" y="152" width="104" height="92" rx="6" fill="#1a1a1a" stroke="#2a2a2a" stroke-width="1"/>
<g transform="translate(461.0,170) scale(1.0833333333333333)"><path d="M4 22H2V2H4M22 2H20V22H22M17.24 5.34L13.24 9.34A3 3 0 0 0 9.24 13.34L5.24 17.34L6.66 18.76L10.66 14.76A3 3 0 0 0 14.66 10.76L18.66 6.76Z" fill="#d4d4d4"/></g>
<text x="474.0" y="230" font-size="11" fill="#9a9a9a" text-anchor="middle" font-family="system-ui,sans-serif">valve</text>
<rect x="540" y="152" width="104" height="92" rx="6" fill="#1a1a1a" stroke="#2a2a2a" stroke-width="1"/>
<g transform="translate(579.0,170) scale(1.0833333333333333)"><path d="M12,17A2,2 0 0,0 14,15C14,13.89 13.1,13 12,13A2,2 0 0,0 10,15A2,2 0 0,0 12,17M18,8A2,2 0 0,1 20,10V20A2,2 0 0,1 18,22H6A2,2 0 0,1 4,20V10C4,8.89 4.9,8 6,8H7V6A5,5 0 0,1 12,1A5,5 0 0,1 17,6V8H18M12,3A3,3 0 0,0 9,6V8H15V6A3,3 0 0,0 12,3Z" fill="#d4d4d4"/></g>
<text x="592.0" y="230" font-size="11" fill="#9a9a9a" text-anchor="middle" font-family="system-ui,sans-serif">lock</text>
<rect x="68" y="274" width="90" height="36" rx="5" fill="#2a2a2a"/>
<text x="113" y="297" font-size="13" font-weight="500" fill="#9a9a9a" text-anchor="middle" font-family="system-ui,sans-serif">Cancel</text>
</svg>